{"title":"Merlin Season 5 Episode 8 The Hollow Queen 720P","uid":7857440,"size":477418377,"categoryP":"video","categoryS":"hd___tv_shows","magnet":"?xt=urn:btih:74ab2b1235001864f97331e493f4cf6322117944&amp;dn=Merlin+Season+5+Episode+8+The+Hollow+Queen+720P&amp;tr=udp%3A%2F%2Ftracker.openbittorrent.com%3A80&amp;tr=udp%3A%2F%2Fopen.demonii.com%3A1337&amp;tr=udp%3A%2F%2Ftracker.coppersurfer.tk%3A6969&amp;tr=udp%3A%2F%2Fexodus.desync.com%3A6969","seeders":1,"leechers":0,"uploader":"jmanwf","files":1,"time":1353808535,"description":"Merlin Season 5 Episode 8 The Hollow Queen\n\n\n\nAs a deadly net closes in around Arthur, Merlin finds himself far from Camelot. \n\nFormat                                   : MPEG-4\nFormat profile                           : Base Media / Version 2\nCodec ID                                 : mp42\nFile size                                : 455 MiB\nDuration                                 : 42mn 52s\nOverall bit rate mode                    : Variable\nOverall bit rate                         : 1 484 Kbps\nEncoded date                             : UTC 2012-11-25 00:36:29\nTagged date                              : UTC 2012-11-25 00:51:27\nWriting application                      : HandBrake 0.9.8 2012071700\n\nVideo\nID                                       : 1\nFormat                                   : AVC\nFormat/Info                              : Advanced Video Codec\nFormat profile                           : &lt;a class=&quot;__cf_email__&quot; href=&quot;/cdn-cgi/l/email-protection&quot; data-cfemail=&quot;1f527e76715f532c312e&quot;&gt;[email&amp;#160;protected]&lt;/a&gt;&lt;script cf-hash='f9e31' type=&quot;text/javascript&quot;&gt;\n/* &lt;![CDATA[ */!function(){try{var t=&quot;currentScript&quot;in document?document.currentScript:function(){for(var t=document.getElementsByTagName(&quot;script&quot;),e=t.length;e--;)if(t[e].getAttribute(&quot;cf-hash&quot;))return t[e]}();if(t&amp;&amp;t.previousSibling){var e,r,n,i,c=t.previousSibling,a=c.getAttribute(&quot;data-cfemail&quot;);if(a){for(e=&quot;&quot;,r=parseInt(a.substr(0,2),16),n=2;a.length-n;n+=2)i=parseInt(a.substr(n,2),16)^r,e+=String.fromCharCode(i);e=document.createTextNode(e),c.parentNode.replaceChild(e,c)}}}catch(u){}}();/* ]]&gt; */&lt;/script&gt;\nFormat settings, CABAC                   : Yes\nFormat settings, ReFrames                : 4 frames\nCodec ID                                 : avc1\nCodec ID/Info                            : Advanced Video Coding\nDuration                                 : 42mn 52s\nBit rate mode                            : Variable\n\n\nBit rate                                 : 1 320 Kbps\nWidth                                    : 1 280 pixels\nHeight                                   : 720 pixels\nDisplay aspect ratio                     : 16:9\nFrame rate mode                          : Variable\nFrame rate                               : 25.000 fps\nMinimum frame rate                       : 8.929 fps\nMaximum frame rate                       : 200.000 fps\nColor space                              : YUV\nChroma subsampling                       : 4:2:0\nBit depth                                : 8 bits\nScan type                                : Progressive\nBits/(Pixel*Frame)                       : 0.057\nStream size                              : 405 MiB (89%)\nWriting library                          : x264 core 120\n\nAudio\nID                                       : 2\nFormat                                   : AAC\nFormat/Info                              : Advanced Audio Codec\nFormat profile                           : LC\nCodec ID                                 : 40\nDuration                                 : 42mn 52s\nBit rate mode                            : Variable\nBit rate                                 : 160 Kbps\nMaximum bit rate                         : 215 Kbps\nChannel(s)                               : 2 channels\nChannel positions                        : Front: L R\nSampling rate                            : 48.0 KHz\nCompression mode                         : Lossy\nStream size                              : 49.0 MiB (11%)\nEncoded date                             : UTC 2012-11-25 00:36:29\nTagged date                              : UTC 2012-11-25 00:51:21\n\n","torrent":{"xt":"urn:btih:74ab2b1235001864f97331e493f4cf6322117944","amp;dn":"Merlin+Season+5+Episode+8+The+Hollow+Queen+720P","amp;tr":["udp%3A%2F%2Ftracker.openbittorrent.com%3A80","udp%3A%2F%2Fopen.demonii.com%3A1337","udp%3A%2F%2Ftracker.coppersurfer.tk%3A6969","udp%3A%2F%2Fexodus.desync.com%3A6969"],"infoHash":"74ab2b1235001864f97331e493f4cf6322117944","infoHashBuffer":{"type":"Buffer","data":[116,171,43,18,53,0,24,100,249,115,49,228,147,244,207,99,34,17,121,68]},"announce":[],"urlList":[]}}